<svg height="475pt" viewBox="-17 0 475 475.63657" width="475pt" xmlns="http://www.w3.org/2000/svg"><path d="m393.117188 51.636719v64l-16-16-16 16v-64zm0 0" fill="#bddbff"/><path d="m305.117188 365.15625v54.480469l-24-16-24 16v-54.480469c14.835937 8.640625 33.167968 8.640625 48 0zm0 0" fill="#bddbff"/><path d="m305.117188 323.636719c0 13.253906-10.742188 24-24 24-13.253907 0-24-10.746094-24-24 0-13.253907 10.746093-24 24-24 13.257812 0 24 10.746093 24 24zm0 0" fill="#bddbff"/><path d="m49.117188 187.636719h32v192h-32zm0 0" fill="#bddbff"/><path d="m173.679688 51.636719h-2.800782l-41.761718 30.398437-4.398438 3.203125-59.679688-6.320312v.078125l13.839844 51.679687c16.539063 3.234375 33.460938 4.070313 50.238282 2.480469 2.703124-.289062 5.378906-.796875 8-1.519531 23.199218-6.238281 49.921874-29.921875 49.921874-29.921875zm0 0" fill="#bddbff"/><path d="m104 8.035156-90.082031 65.519532 51.121093 5.363281 59.679688 6.320312 4.398438-3.203125 41.761718-30.398437 2.320313-1.679688 41.597656-30.242187zm0 0" fill="#bddbff"/><g fill="#3d9ae2"><path d="m417.117188 43.636719h-208v16h144v56c0 3.234375 1.949218 6.152343 4.941406 7.390625 2.988281 1.238281 6.429687.550781 8.714844-1.734375l10.34375-10.34375 10.34375 10.34375c2.289062 2.285156 5.730468 2.972656 8.71875 1.734375 2.988281-1.238282 4.9375-4.15625 4.9375-7.390625v-56h16c4.417968 0 8 3.582031 8 8v384c0 4.417969-3.582032 8-8 8h-272c-4.417969 0-8-3.582031-8-8v-296h-16v296c0 13.253906 10.746093 24 24 24h272c13.257812 0 24-10.746094 24-24v-384c0-13.253907-10.742188-24-24-24zm-32 52.6875-2.34375-2.34375c-3.125-3.121094-8.1875-3.121094-11.3125 0l-2.34375 2.34375v-36.6875h16zm0 0"/><path d="m169.117188 171.636719h176v16h-176zm0 0"/><path d="m361.117188 171.636719h32v16h-32zm0 0"/><path d="m169.117188 203.636719h224v16h-224zm0 0"/><path d="m249.117188 123.636719h64v16h-64zm0 0"/><path d="m265.117188 91.636719h32v16h-32zm0 0"/><path d="m281.117188 355.636719c17.675781 0 32-14.328125 32-32s-14.324219-32-32-32c-17.671876 0-32 14.328125-32 32s14.328124 32 32 32zm0-48c8.835937 0 16 7.164062 16 16 0 8.835937-7.164063 16-16 16-8.835938 0-16-7.164063-16-16 0-8.835938 7.164062-16 16-16zm0 0"/><path d="m253.34375 426.691406c2.601562 1.394532 5.757812 1.238282 8.214844-.398437l19.558594-13.054688 19.5625 13.039063c2.449218 1.636718 5.605468 1.789062 8.207031.402344 2.597656-1.386719 4.226562-4.09375 4.230469-7.042969v-50.113281c20.082031-13.980469 28.757812-39.378907 21.429687-62.726563-7.324219-23.34375-28.960937-39.230469-53.429687-39.230469s-46.101563 15.886719-53.429688 39.230469c-7.328125 23.347656 1.351562 48.746094 21.429688 62.726563v50.113281c0 2.949219 1.625 5.664062 4.226562 7.054687zm43.773438-22.007812-11.558594-7.703125c-2.6875-1.792969-6.191406-1.792969-8.878906 0l-11.5625 7.703125v-27.40625c10.4375 3.144531 21.566406 3.144531 32 0zm-56-81.046875c0-22.089844 17.910156-40 40-40 22.09375 0 40 17.910156 40 40 0 22.089843-17.90625 40-40 40-22.078126-.027344-39.972657-17.917969-40-40zm0 0"/><path d="m192.375 107.636719c2.246094-2 3.183594-5.089844 2.421875-8l-12.429687-46.398438 37.152343-27.050781c2.65625-1.953125 3.84375-5.335938 2.988281-8.519531-.851562-3.1875-3.574218-5.519531-6.855468-5.878907l-110.8125-11.7460932c-1.972656-.2070308-3.949219.3242192-5.554688 1.4882812l-90.101562 65.554688c-2.683594 1.945312-3.886719 5.347656-3.023438 8.550781l9.492188 35.433593-15.335938 26.511719 13.867188 8 7.3125-12.671875 3.285156 12.253906 15.457031-4.136718-3.289062-12.246094 12.664062 7.3125 8-13.863281-26.503906-15.3125-6.480469-24.183594 34.097656 3.605469 12.433594 46.402344c.785156 2.921874 3.15625 5.152343 6.125 5.757812 12.132813 2.332031 24.449219 3.554688 36.800782 3.65625 8.460937.140625 16.90625-.800781 25.128906-2.800781 24.695312-6.613281 52.015625-30.664063 53.160156-31.71875zm-86.160156-91.359375 87.0625 9.207031-70.800782 51.503906-87.070312-9.199219zm-20.929688 107.40625-9.519531-35.542969 48.089844 5.089844c.277343.03125.558593.046875.839843.046875 1.691407-.003906 3.335938-.539063 4.703126-1.535156l39.105468-28.449219 9.519532 35.542969c-12.683594 10.902343-27.246094 19.398437-42.976563 25.074218-16.464844 2.949219-33.324219 2.871094-49.761719-.226562zm0 0"/><path d="m65.117188 147.636719c-13.253907 0-24 10.746093-24 24v216c0 1.019531.195312 2.027343.570312 2.976562l16 40c1.210938 3.042969 4.15625 5.039063 7.429688 5.039063 3.277343 0 6.222656-1.996094 7.433593-5.039063l16-40c.375-.949219.566407-1.957031.566407-2.976562v-216c0-13.253907-10.742188-24-24-24zm0 16c4.417968 0 8 3.582031 8 8v8h-16v-8c0-4.417969 3.582031-8 8-8zm-8 208v-176h16v176zm8 34.464843-7.382813-18.464843h14.769531zm0 0"/></g></svg>